name rise30.8019peak61.5557fall86.2505.mot
datacolumns 19
datarows 30
range 22.59658500000000 22.64491900000000
endheader
time	ground_force1_vx	ground_force1_vy	ground_force1_vz	ground_force1_px	ground_force1_py	ground_force1_pz	ground_force2_vx	ground_force2_vy	ground_force2_vz	ground_force2_px	ground_force2_py	ground_force2_pz	ground_torque1_x	ground_torque1_y	ground_torque1_z	ground_torque2_x	ground_torque2_y	ground_torque2_z	
22.59658500000000	55.77292300000000	768.47980900000005	44.44934200000000	0.24551600000000	0.00000000000000	0.08438700000000	0.00000000000000	0.00000000000000	0.00000000000000	0.00000000000000	0.00000000000000	0.00000000000000	0.00000000000000	13.15365200000000	0.00000000000000	0.00000000000000	0.00000000000000	0.00000000000000	
22.59824500000000	54.92265100000000	767.37138700000003	44.33550000000000	0.24434300000000	0.00000000000000	0.08440200000000	0.00000000000000	0.00000000000000	0.00000000000000	0.00000000000000	0.00000000000000	0.00000000000000	0.00000000000000	13.11955900000000	0.00000000000000	0.00000000000000	0.00000000000000	0.00000000000000	
22.59991900000000	54.07481600000000	766.14462300000002	44.21884400000000	0.24316700000000	0.00000000000000	0.08441700000000	0.00000000000000	0.00000000000000	0.00000000000000	0.00000000000000	0.00000000000000	0.00000000000000	0.00000000000000	13.08425900000000	0.00000000000000	0.00000000000000	0.00000000000000	0.00000000000000	
22.60158100000000	53.22936500000000	764.80388000000005	44.09933800000000	0.24198900000000	0.00000000000000	0.08443300000000	0.00000000000000	0.00000000000000	0.00000000000000	0.00000000000000	0.00000000000000	0.00000000000000	0.00000000000000	13.04772400000000	0.00000000000000	0.00000000000000	0.00000000000000	0.00000000000000	
22.60324800000000	52.38621300000000	763.35369800000001	43.97691900000000	0.24080600000000	0.00000000000000	0.08445000000000	0.00000000000000	0.00000000000000	0.00000000000000	0.00000000000000	0.00000000000000	0.00000000000000	0.00000000000000	13.00992200000000	0.00000000000000	0.00000000000000	0.00000000000000	0.00000000000000	
22.60491200000000	51.54525800000000	761.79878799999994	43.85150500000000	0.23961700000000	0.00000000000000	0.08446700000000	0.00000000000000	0.00000000000000	0.00000000000000	0.00000000000000	0.00000000000000	0.00000000000000	0.00000000000000	12.97081300000000	0.00000000000000	0.00000000000000	0.00000000000000	0.00000000000000	
22.60658700000000	50.70638000000000	760.14402199999995	43.72299600000000	0.23842000000000	0.00000000000000	0.08448500000000	0.00000000000000	0.00000000000000	0.00000000000000	0.00000000000000	0.00000000000000	0.00000000000000	0.00000000000000	12.93035600000000	0.00000000000000	0.00000000000000	0.00000000000000	0.00000000000000	
22.60825400000000	49.86944900000000	758.39442199999996	43.59127600000000	0.23721500000000	0.00000000000000	0.08450300000000	0.00000000000000	0.00000000000000	0.00000000000000	0.00000000000000	0.00000000000000	0.00000000000000	0.00000000000000	12.88850400000000	0.00000000000000	0.00000000000000	0.00000000000000	0.00000000000000	
22.60992000000000	49.03432600000000	756.55514900000003	43.45621800000000	0.23600000000000	0.00000000000000	0.08452200000000	0.00000000000000	0.00000000000000	0.00000000000000	0.00000000000000	0.00000000000000	0.00000000000000	0.00000000000000	12.84520900000000	0.00000000000000	0.00000000000000	0.00000000000000	0.00000000000000	
22.61158500000000	48.20087100000000	754.63148999999999	43.31768600000000	0.23477300000000	0.00000000000000	0.08454100000000	0.00000000000000	0.00000000000000	0.00000000000000	0.00000000000000	0.00000000000000	0.00000000000000	0.00000000000000	12.80042200000000	0.00000000000000	0.00000000000000	0.00000000000000	0.00000000000000	
22.61324900000000	47.36894400000000	752.62884899999995	43.17553900000000	0.23353400000000	0.00000000000000	0.08456100000000	0.00000000000000	0.00000000000000	0.00000000000000	0.00000000000000	0.00000000000000	0.00000000000000	0.00000000000000	12.75409600000000	0.00000000000000	0.00000000000000	0.00000000000000	0.00000000000000	
22.61491600000000	46.53841200000000	750.55272900000000	43.02963400000000	0.23228200000000	0.00000000000000	0.08458200000000	0.00000000000000	0.00000000000000	0.00000000000000	0.00000000000000	0.00000000000000	0.00000000000000	0.00000000000000	12.70618500000000	0.00000000000000	0.00000000000000	0.00000000000000	0.00000000000000	
22.61657900000000	45.70915000000000	748.40872300000001	42.87982600000000	0.23101500000000	0.00000000000000	0.08460300000000	0.00000000000000	0.00000000000000	0.00000000000000	0.00000000000000	0.00000000000000	0.00000000000000	0.00000000000000	12.65664800000000	0.00000000000000	0.00000000000000	0.00000000000000	0.00000000000000	
22.61824700000000	44.88104600000000	746.20249500000000	42.72597500000000	0.22973300000000	0.00000000000000	0.08462500000000	0.00000000000000	0.00000000000000	0.00000000000000	0.00000000000000	0.00000000000000	0.00000000000000	0.00000000000000	12.60544700000000	0.00000000000000	0.00000000000000	0.00000000000000	0.00000000000000	
22.61991400000000	44.05400500000000	743.93977099999995	42.56794600000000	0.22843500000000	0.00000000000000	0.08464700000000	0.00000000000000	0.00000000000000	0.00000000000000	0.00000000000000	0.00000000000000	0.00000000000000	0.00000000000000	12.55254800000000	0.00000000000000	0.00000000000000	0.00000000000000	0.00000000000000	
22.62157900000000	43.22794900000000	741.62631899999997	42.40561300000000	0.22712000000000	0.00000000000000	0.08466900000000	0.00000000000000	0.00000000000000	0.00000000000000	0.00000000000000	0.00000000000000	0.00000000000000	0.00000000000000	12.49792700000000	0.00000000000000	0.00000000000000	0.00000000000000	0.00000000000000	
22.62325300000000	42.40282300000000	739.26793699999996	42.23886200000000	0.22578800000000	0.00000000000000	0.08469300000000	0.00000000000000	0.00000000000000	0.00000000000000	0.00000000000000	0.00000000000000	0.00000000000000	0.00000000000000	12.44156300000000	0.00000000000000	0.00000000000000	0.00000000000000	0.00000000000000	
22.62491900000000	41.57859500000000	736.87043700000004	42.06759000000000	0.22443900000000	0.00000000000000	0.08471600000000	0.00000000000000	0.00000000000000	0.00000000000000	0.00000000000000	0.00000000000000	0.00000000000000	0.00000000000000	12.38344800000000	0.00000000000000	0.00000000000000	0.00000000000000	0.00000000000000	
22.62658400000000	40.75526000000000	734.43962899999997	41.89171200000000	0.22307300000000	0.00000000000000	0.08474000000000	0.00000000000000	0.00000000000000	0.00000000000000	0.00000000000000	0.00000000000000	0.00000000000000	0.00000000000000	12.32357800000000	0.00000000000000	0.00000000000000	0.00000000000000	0.00000000000000	
22.62825000000000	39.93283800000000	731.98130800000001	41.71116000000000	0.22168800000000	0.00000000000000	0.08476400000000	0.00000000000000	0.00000000000000	0.00000000000000	0.00000000000000	0.00000000000000	0.00000000000000	0.00000000000000	12.26196100000000	0.00000000000000	0.00000000000000	0.00000000000000	0.00000000000000	
22.62991600000000	39.11138100000000	729.50123599999995	41.52588500000000	0.22028600000000	0.00000000000000	0.08478900000000	0.00000000000000	0.00000000000000	0.00000000000000	0.00000000000000	0.00000000000000	0.00000000000000	0.00000000000000	12.19861500000000	0.00000000000000	0.00000000000000	0.00000000000000	0.00000000000000	
22.63158100000000	38.29096700000000	727.00512900000001	41.33586000000000	0.21886600000000	0.00000000000000	0.08481300000000	0.00000000000000	0.00000000000000	0.00000000000000	0.00000000000000	0.00000000000000	0.00000000000000	0.00000000000000	12.13356800000000	0.00000000000000	0.00000000000000	0.00000000000000	0.00000000000000	
22.63324700000000	37.47170800000000	724.49864200000002	41.14108100000000	0.21743000000000	0.00000000000000	0.08483800000000	0.00000000000000	0.00000000000000	0.00000000000000	0.00000000000000	0.00000000000000	0.00000000000000	0.00000000000000	12.06685600000000	0.00000000000000	0.00000000000000	0.00000000000000	0.00000000000000	
22.63491400000000	36.65374300000000	721.98735399999998	40.94156800000000	0.21597600000000	0.00000000000000	0.08486300000000	0.00000000000000	0.00000000000000	0.00000000000000	0.00000000000000	0.00000000000000	0.00000000000000	0.00000000000000	11.99852900000000	0.00000000000000	0.00000000000000	0.00000000000000	0.00000000000000	
22.63659200000000	35.83724400000000	719.47675200000003	40.73736400000000	0.21450700000000	0.00000000000000	0.08488800000000	0.00000000000000	0.00000000000000	0.00000000000000	0.00000000000000	0.00000000000000	0.00000000000000	0.00000000000000	11.92864600000000	0.00000000000000	0.00000000000000	0.00000000000000	0.00000000000000	
22.63824600000000	35.02241200000000	716.97222199999999	40.52854100000000	0.21302200000000	0.00000000000000	0.08491300000000	0.00000000000000	0.00000000000000	0.00000000000000	0.00000000000000	0.00000000000000	0.00000000000000	0.00000000000000	11.85727700000000	0.00000000000000	0.00000000000000	0.00000000000000	0.00000000000000	
22.63992000000000	34.20947700000000	714.47903099999996	40.31519500000000	0.21152400000000	0.00000000000000	0.08493800000000	0.00000000000000	0.00000000000000	0.00000000000000	0.00000000000000	0.00000000000000	0.00000000000000	0.00000000000000	11.78450100000000	0.00000000000000	0.00000000000000	0.00000000000000	0.00000000000000	
22.64158100000000	33.39869800000000	712.00231599999995	40.09745100000000	0.21001200000000	0.00000000000000	0.08496300000000	0.00000000000000	0.00000000000000	0.00000000000000	0.00000000000000	0.00000000000000	0.00000000000000	0.00000000000000	11.71040900000000	0.00000000000000	0.00000000000000	0.00000000000000	0.00000000000000	
22.64325400000000	32.59036000000000	709.54707399999995	39.87545800000000	0.20848800000000	0.00000000000000	0.08498700000000	0.00000000000000	0.00000000000000	0.00000000000000	0.00000000000000	0.00000000000000	0.00000000000000	0.00000000000000	11.63510000000000	0.00000000000000	0.00000000000000	0.00000000000000	0.00000000000000	
22.64491900000000	31.78477500000000	707.11814600000002	39.64939500000000	0.20695300000000	0.00000000000000	0.08501200000000	0.00000000000000	0.00000000000000	0.00000000000000	0.00000000000000	0.00000000000000	0.00000000000000	0.00000000000000	11.55868400000000	0.00000000000000	0.00000000000000	0.00000000000000	0.00000000000000	
